<svg id="logosandtypes_com" xmlns="http://www.w3.org/2000/svg" viewBox="0 0 150 150.2" xml:space="preserve"><style>.st1{fill:#17b2e7}</style><path d="M0 .2h150v150H0V.2z" fill="none"/><path class="st1" d="M143.3 76.1c-.4 1.4-1.4 2.4-2.4 3.5l-20.5 20.5c-2.5 2.5-5.1 2.5-7.6 0-7-7.1-14.1-14.1-21.1-21.2-2.4-2.4-2.4-5 0-7.4L113 50.2c2.3-2.3 5-2.3 7.3 0 6.9 6.9 13.7 13.8 20.6 20.6 1 1 2 2.1 2.4 3.5v1.8zM75.3 142.3c-1.4-.4-2.4-1.4-3.4-2.4-6.8-6.9-13.7-13.7-20.5-20.5-2.4-2.4-2.4-5.1 0-7.5 7.1-7.1 14.1-14.2 21.2-21.2 2.4-2.4 5-2.4 7.4 0 7.1 7.1 14.1 14.2 21.2 21.2 2.4 2.4 2.4 5.1 0 7.5l-20.7 20.7c-1 1-2 1.9-3.4 2.3-.5-.1-1.1-.1-1.8-.1zM50.5 34.6c0-2.3.5-4.1 2.3-5.6 1.4-1.2 14.3-14.3 19.5-19.5 2.4-2.4 5.1-2.4 7.5 0L101 30.7c2.4 2.4 2.4 5.1 0 7.5-8.3 8.4-39.8 39.8-47.1 47.2-1.4 1.4-2.6 1-3.1-.8-.2-.6-.2-1.2-.2-1.8-.1-8.2 0-40.3-.1-48.2zM33.6 97c0 .7-.1 1.4-.4 2-.5 1.3-1.4 1.4-2.3.5C27.6 96.2 13.3 81.8 9.5 78c-1.6-1.6-1.6-3.8 0-5.4 7.1-7.1 14.1-14.3 21.2-21.4.5-.5.9-1.1 1.7-.8.8.3 1.1 1 1.2 1.7.1.5.1.9.1 1.4 0 7.3 0 36.2-.1 43.5z"/></svg>